<?xml version="1.0" encoding="utf-8"?>
<!-- Generator: Adobe Illustrator 27.3.1, SVG Export Plug-In . SVG Version: 6.00 Build 0)  -->
<svg version="1.1" id="Layer_1" xmlns="http://www.w3.org/2000/svg" xmlns:xlink="http://www.w3.org/1999/xlink" x="0px" y="0px"
	 viewBox="0 0 768 256" style="enable-background:new 0 0 768 256;" xml:space="preserve">
<style type="text/css">
	.st0{fill:#252525;}
	.st1{fill:#E9D7B0;}
	.st2{fill:#FFFFFF;}
	.st3{fill:url(#SVGID_1_);}
	.st4{fill:url(#SVGID_00000055683228248778521670000006510520551845247645_);}
	.st5{fill:url(#SVGID_00000158743434889325090190000000134816785925054387_);}
	.st6{fill:url(#SVGID_00000076587668925285995460000015083660019040157360_);}
	.st7{fill:url(#SVGID_00000065791897104437684560000004534853821863457943_);}
	.st8{fill:url(#SVGID_00000178914817404700868070000017136081737691720877_);}
</style>
<rect class="st0" width="768" height="256"/>
<g id="_x23_e9d7b0ff">
	<path class="st1" d="M93.39,83.44c13.36-5.43,28.85-5.44,42.21,0c15.49,5.93,28.38,21.3,27.02,38.48
		c-0.74,14.18-11.01,26.26-23.41,32.34c-2.91,0.98-1.75,4.44-0.87,6.49c0.96,3.43,3.24,7.74,0.33,10.83
		c-3.16,3.12-8.93,2.28-11.58-1.18c-2.64,4.15-9.77,4.18-12.42,0.06c-3.06,3.86-9.98,4.28-12.78-0.09c-2.8,3.9-9.73,4.44-12.36,0.12
		c-2.18-5.21,3.39-10.37,1.64-15.39c-5.03-2.9-10.16-5.83-14.16-10.13c-8.48-8.48-12.72-21.27-9.79-33.04
		C70.22,98.67,81.06,88.37,93.39,83.44 M85.88,106c-0.12,9.66-0.05,19.32-0.04,28.99c-0.29,1.43,1.67,2.49,2.75,1.6
		c8.39-4.91,16.87-9.71,25.14-14.8c0.07-0.43,0.19-1.28,0.25-1.71c-0.71-1.02-1.95-1.44-2.94-2.11c-7.67-4.44-15.27-9-22.97-13.38
		l-1-0.02C86.77,104.93,86.18,105.64,85.88,106 M116.47,107.51c-0.11,0.35-0.33,1.03-0.45,1.37c4.97,8.7,9.87,17.49,15.13,26
		c0.47,0.04,1.39,0.11,1.86,0.15c5.31-8.16,9.87-16.87,14.85-25.26c1.17-1.23-0.24-3.31-1.8-2.9c-9.69,0.07-19.39-0.17-29.06,0.12
		L116.47,107.51 M108.66,152.02c3.93,0.09,7.87,0.05,11.8,0.02l0.28-0.79c-1.94-3.36-3.83-6.75-5.87-10.05
		C112.38,144.46,110.11,148.18,108.66,152.02z"/>
	<path class="st1" d="M576.8,106.02c7.41-0.05,14.82,0,22.23-0.03c5.88,0.13,12.29,2.07,15.81,7.11c5.54,8.26,2.67,21.48-7.11,25.1
		c4.12,7.54,8.16,15.13,12.08,22.78c-4.18,0.02-8.36,0.07-12.52-0.03c-3.44-6.64-6.72-13.35-10.26-19.94
		c-2.95-0.02-5.89-0.04-8.82,0.02c-0.01,6.65,0.01,13.3-0.01,19.96c-3.8,0.02-7.6,0.02-11.4-0.01
		C576.78,142.66,576.78,124.34,576.8,106.02 M588.21,115.03c0,5.65-0.01,11.3,0,16.95c4.55-0.31,9.38,0.89,13.68-0.96
		c5.29-2.47,5.64-10.71,1.37-14.29C598.83,113.73,593.22,115.42,588.21,115.03z"/>
	<path class="st1" d="M634.46,106.09c3.8-0.2,7.62-0.06,11.44-0.07c0.01,18.32,0.01,36.64,0,54.96c-3.72,0.04-7.43,0.01-11.13,0.02
		l-0.31-0.36C634.52,142.46,634.51,124.27,634.46,106.09z"/>
	<path class="st1" d="M663.8,106.01c8.13-0.03,16.26,0,24.39-0.01c4.97,0.61,10.12,2.42,13.55,6.32c6.42,7.2,5.48,20.24-3.06,25.4
		c-7.01,4.5-15.6,3.01-23.47,3.3c-0.01,6.66,0.01,13.31-0.01,19.97c-3.8,0.02-7.6,0.02-11.4,0
		C663.78,142.66,663.78,124.34,663.8,106.01 M675.21,115.02c-0.01,5.65,0,11.3,0,16.95c4.89-0.21,9.96,0.7,14.67-0.71
		c6.17-2.5,5.84-12.44,0.04-15.21C685.29,114.05,680.1,115.36,675.21,115.02z"/>
</g>
<g>
	<g>
		<path class="st2" d="M222.37,146.41c-0.37-7.72-6.82-9.57-14.47-11.47c-14.79-1.47-26.9-14.31-13.76-26.02
			c10.72-8.47,34.44-4.24,33.98,12.08h-6.05c0.06-18.2-38.39-11.92-24.28,4.72c9.12,5.92,31.39,4.84,30.63,20.39
			c-0.31,21.37-41.72,19.73-41.49-1.11h6.05C193.13,159.27,221.37,160.43,222.37,146.41z"/>
		<path class="st2" d="M262,91v14h12v5h-12v36.83c-0.4,8.19,4.63,10.28,11.94,8.58l0.25,4.96c-9.68,3.27-19.28-1.68-18.21-13.53
			c0,0,0-36.84,0-36.84H246v-5h10V91H262z"/>
		<path class="st2" d="M322.64,110.18c-28.51-4.75-17.52,34.44-19.54,49.82H297v-55h6l0.1,8.74c3.48-7.59,11.86-11.46,19.69-9.1
			L322.64,110.18z"/>
		<path class="st2" d="M363.41,161.08c-21.91,0.67-29.94-26.47-21.56-43.37c13.58-25.28,45.68-13.11,42.17,15.29h-39.2
			c-2.08,19.59,21.82,31.69,34.23,15.49l3.81,2.89C378.4,157.85,371.91,161.08,363.41,161.08z M362.3,109.46
			c-10.12,0.02-16.16,8.52-17.27,18.54h32.96C378.08,118.24,372.38,109.36,362.3,109.46z"/>
		<path class="st2" d="M441.23,160c-0.61-1.74-1.01-4.31-1.17-7.71c-9.1,13.08-36.59,11.79-36.58-6.95
			c0.24-17.92,22.23-17.99,36.53-17.47v-6.28c1.4-16.62-28.25-16.84-29.07-1.58l-6.13-0.05c0.21-15.94,25.54-20.87,35.78-11.62
			c11.18,9.79,1.91,39.18,7.18,51.67H441.23z M422.12,155.83c7.6,0.09,14.88-3.96,17.88-10.82c0,0,0-12.09,0-12.09
			c-7.25-0.03-19.87-0.62-25.09,3.33C404.85,142.2,410.94,156.83,422.12,155.83z"/>
		<path class="st2" d="M478.75,105l0.2,8.95c6.5-12.93,29.79-13.88,33.75,0.71c3.8-6.84,10.76-10.71,18.45-10.67
			c26.44-1.62,15.64,39.94,17.75,56.02H544v-36.21c-0.15-9.53-3.53-14.45-13.15-14.47c-8.1-0.07-15.28,6.23-15.85,14.32
			c0,0,0,36.36,0,36.36h-7v-36.66c-0.09-9.21-4.06-14-13.25-14.02c-8.11,0.03-13.36,4.99-15.75,13c0,0,0,37.68,0,37.68h-6v-55
			H478.75z"/>
	</g>
	<g>
		<linearGradient id="SVGID_1_" gradientUnits="userSpaceOnUse" x1="186.9279" y1="133.0317" x2="550.2825" y2="133.0317">
			<stop  offset="0" style="stop-color:#FCAA62"/>
			<stop  offset="0.148" style="stop-color:#EF9589"/>
			<stop  offset="0.2709" style="stop-color:#E588A4"/>
			<stop  offset="0.4218" style="stop-color:#D17AC7"/>
			<stop  offset="0.5335" style="stop-color:#AC83D0"/>
			<stop  offset="0.8547" style="stop-color:#4DBFC8"/>
		</linearGradient>
		<path class="st3" d="M222.37,146.41c-0.37-7.72-6.82-9.57-14.47-11.47c-14.79-1.47-26.9-14.31-13.76-26.02
			c10.72-8.47,34.44-4.24,33.98,12.08h-6.05c0.06-18.2-38.39-11.92-24.28,4.72c9.12,5.92,31.39,4.84,30.63,20.39
			c-0.31,21.37-41.72,19.73-41.49-1.11h6.05C193.13,159.27,221.37,160.43,222.37,146.41z"/>
		
			<linearGradient id="SVGID_00000103946862931371191510000000729465072844906368_" gradientUnits="userSpaceOnUse" x1="191.9648" y1="126.1764" x2="544.4528" y2="126.1764">
			<stop  offset="0" style="stop-color:#FCAA62"/>
			<stop  offset="0.148" style="stop-color:#EF9589"/>
			<stop  offset="0.2709" style="stop-color:#E588A4"/>
			<stop  offset="0.4218" style="stop-color:#D17AC7"/>
			<stop  offset="0.5335" style="stop-color:#AC83D0"/>
			<stop  offset="0.8547" style="stop-color:#4DBFC8"/>
		</linearGradient>
		<path style="fill:url(#SVGID_00000103946862931371191510000000729465072844906368_);" d="M262,91v14h12v5h-12v36.83
			c-0.4,8.19,4.63,10.28,11.94,8.58l0.25,4.96c-9.68,3.27-19.28-1.68-18.21-13.53c0,0,0-36.84,0-36.84H246v-5h10V91H262z"/>
		
			<linearGradient id="SVGID_00000176721575697468656650000009150589237067441335_" gradientUnits="userSpaceOnUse" x1="190.9367" y1="131.9768" x2="549.0467" y2="131.9768">
			<stop  offset="0" style="stop-color:#FCAA62"/>
			<stop  offset="0.148" style="stop-color:#EF9589"/>
			<stop  offset="0.2709" style="stop-color:#E588A4"/>
			<stop  offset="0.4218" style="stop-color:#D17AC7"/>
			<stop  offset="0.5335" style="stop-color:#AC83D0"/>
			<stop  offset="0.8547" style="stop-color:#4DBFC8"/>
		</linearGradient>
		<path style="fill:url(#SVGID_00000176721575697468656650000009150589237067441335_);" d="M322.64,110.18
			c-28.51-4.75-17.52,34.44-19.54,49.82H297v-55h6l0.1,8.74c3.48-7.59,11.86-11.46,19.69-9.1L322.64,110.18z"/>
		
			<linearGradient id="SVGID_00000079455930380207591750000003505925285802537364_" gradientUnits="userSpaceOnUse" x1="196.2564" y1="132.5227" x2="548.9808" y2="132.5227">
			<stop  offset="0" style="stop-color:#FCAA62"/>
			<stop  offset="0.148" style="stop-color:#EF9589"/>
			<stop  offset="0.2709" style="stop-color:#E588A4"/>
			<stop  offset="0.4218" style="stop-color:#D17AC7"/>
			<stop  offset="0.5335" style="stop-color:#AC83D0"/>
			<stop  offset="0.8547" style="stop-color:#4DBFC8"/>
		</linearGradient>
		<path style="fill:url(#SVGID_00000079455930380207591750000003505925285802537364_);" d="M363.41,161.08
			c-21.91,0.67-29.94-26.47-21.56-43.37c13.58-25.28,45.68-13.11,42.17,15.29h-39.2c-2.08,19.59,21.82,31.69,34.23,15.49l3.81,2.89
			C378.4,157.85,371.91,161.08,363.41,161.08z M362.3,109.46c-10.12,0.02-16.16,8.52-17.27,18.54h32.96
			C378.08,118.24,372.38,109.36,362.3,109.46z"/>
		
			<linearGradient id="SVGID_00000027569275093958031240000016844973093868673714_" gradientUnits="userSpaceOnUse" x1="190.8339" y1="132.3138" x2="549.086" y2="132.3138">
			<stop  offset="0" style="stop-color:#FCAA62"/>
			<stop  offset="0.148" style="stop-color:#EF9589"/>
			<stop  offset="0.2709" style="stop-color:#E588A4"/>
			<stop  offset="0.4218" style="stop-color:#D17AC7"/>
			<stop  offset="0.5335" style="stop-color:#AC83D0"/>
			<stop  offset="0.8547" style="stop-color:#4DBFC8"/>
		</linearGradient>
		<path style="fill:url(#SVGID_00000027569275093958031240000016844973093868673714_);" d="M441.23,160
			c-0.61-1.74-1.01-4.31-1.17-7.71c-9.1,13.08-36.59,11.79-36.58-6.95c0.24-17.92,22.23-17.99,36.53-17.47v-6.28
			c1.4-16.62-28.25-16.84-29.07-1.58l-6.13-0.05c0.21-15.94,25.54-20.87,35.78-11.62c11.18,9.79,1.91,39.18,7.18,51.67H441.23z
			 M422.12,155.83c7.6,0.09,14.88-3.96,17.88-10.82c0,0,0-12.09,0-12.09c-7.25-0.03-19.87-0.62-25.09,3.33
			C404.85,142.2,410.94,156.83,422.12,155.83z"/>
		
			<linearGradient id="SVGID_00000170236692072998314540000006170404067406300812_" gradientUnits="userSpaceOnUse" x1="197.2366" y1="131.9687" x2="549.7985" y2="131.9687">
			<stop  offset="0" style="stop-color:#FCAA62"/>
			<stop  offset="0.148" style="stop-color:#EF9589"/>
			<stop  offset="0.2709" style="stop-color:#E588A4"/>
			<stop  offset="0.4218" style="stop-color:#D17AC7"/>
			<stop  offset="0.5335" style="stop-color:#AC83D0"/>
			<stop  offset="0.8547" style="stop-color:#4DBFC8"/>
		</linearGradient>
		<path style="fill:url(#SVGID_00000170236692072998314540000006170404067406300812_);" d="M478.75,105l0.2,8.95
			c6.5-12.93,29.79-13.88,33.75,0.71c3.8-6.84,10.76-10.71,18.45-10.67c26.44-1.62,15.64,39.94,17.75,56.02H544v-36.21
			c-0.15-9.53-3.53-14.45-13.15-14.47c-8.1-0.07-15.28,6.23-15.85,14.32c0,0,0,36.36,0,36.36h-7v-36.66
			c-0.09-9.21-4.06-14-13.25-14.02c-8.11,0.03-13.36,4.99-15.75,13c0,0,0,37.68,0,37.68h-6v-55H478.75z"/>
	</g>
</g>
</svg>
